# xmcd
#
# Track frame offsets:
#	150
#	12579
#	25207
#	39588
#	56232
#	65442
#	82513
#	92661
#	106864
#	119557
#	131848
#	155579
#
# Disc length: 2328 seconds
#
# Revision: 1
# Processed by: cddbd v1.5.2PL0 Copyright (c) Steve Scherf et al.
# Submitted via: audiograbber 1.83.01
#
DISCID=9b09160c
DTITLE=Silva Zingg, Drew Davies, Pascal Ammann - Hot Cat Session Volume 1 - Sto
DTITLE=mpin' Boogie Woogie and Blues
DYEAR=2011
DGENRE=Blues
TTITLE0=That's The Spirit
TTITLE1=Trumpet Boogie (With a Sax)
TTITLE2=Silvan's Stomp
TTITLE3=Boogie Woogie Stomp
TTITLE4=Alley Cat (Around the Piano)
TTITLE5=Hot Cat Shuffle
TTITLE6=Farish Street Jive
TTITLE7=Full Moon Riff
TTITLE8=Texas Stomp
TTITLE9=Stoppin' The Boogie
TTITLE10=Long Way Blues
TTITLE11=Pinetop's Boogie Woogie
EXTD=
EXTT0=
EXTT1=
EXTT2=
EXTT3=
EXTT4=
EXTT5=
EXTT6=
EXTT7=
EXTT8=
EXTT9=
EXTT10=
EXTT11=
PLAYORDER=
